<svg xmlns="http://www.w3.org/2000/svg" version="1.1" xmlns:xlink="http://www.w3.org/1999/xlink" width="1080" height="1080"><svg id="SvgjsSvg1017" data-name="Layer 2" xmlns="http://www.w3.org/2000/svg" xmlns:xlink="http://www.w3.org/1999/xlink" viewBox="0 0 1080 1080">
  <defs>
    <style>
      .cls-1 {
        fill: none;
      }

      .cls-2 {
        fill: #29323d;
      }

      .cls-3 {
        fill: #04bf8a;
      }

      .cls-4 {
        clip-path: url(#clippath);
      }
    </style>
    <clipPath id="SvgjsClipPath1016">
      <rect class="cls-1" x="0" y="0" width="1080" height="1080"></rect>
    </clipPath>
  </defs>
  <g id="SvgjsG1015" data-name="Layer 1">
    <g class="cls-4">
      <g>
        <path class="cls-2" d="M923.58,782.24c-21.44-92.4-74.8-77.3-149.18-97.76-36.1-9.93-74.36-27.41-102.76-52.16-1.7-1.48-4.34-.91-5.3,1.13l-78.51,168.36c-1.25,2.67-5.02,2.58-6.23-.11-.01-.02-.01-.05-.02-.06-7.72-16.98-11.47-39.06-17.64-57.03-.22-.63-.24-1.29-.09-1.93,3.46-14.21,25.82-50.55,20.8-61.57-1.52-3.32-6.24-10.76-16.02-11.9-4.43-.51-16.39-.88-28.63-.97-12.24.09-24.2.46-28.63.97-9.78,1.14-14.5,8.58-16.02,11.9-5.02,11.01,17.34,47.36,20.8,61.57.15.64.13,1.3-.09,1.93-6.17,17.97-9.92,40.05-17.64,57.03-.01.01-.01.03-.02.06-1.21,2.7-4.98,2.79-6.23.11l-78.51-168.36c-.96-2.04-3.6-2.62-5.3-1.13-28.4,24.76-66.66,42.24-102.76,52.16-74.39,20.46-127.74,5.36-149.18,97.76-7.12,30.69-14.84,98.02-9.69,127.93,9.67,56.05,121.57,80.5,168.36,90.53,74.48,15.96,149.55,27.51,224.9,28.85,75.36-1.34,150.43-12.89,224.9-28.85,46.8-10.03,158.7-34.48,168.36-90.53,5.15-29.91-2.57-97.25-9.69-127.93Z"></path>
        <path class="cls-3" d="M774.32,282.3c-7.11-16.11-31.04-12.27-34.4-17.38.3-73.43-44.46-144.09-110.44-175.31l-15.27,93.26c-5.77,17.34-30.88,17.22-32.57-2.59l19.84-105.94c.56-11.12-17.02-21.44-26.78-22.56-7.69-.89-21.18-1.32-34.7-1.33h-.07c-13.52,0-27.01.44-34.7,1.33-9.76,1.12-27.34,11.45-26.78,22.56l19.84,105.94c-1.69,19.81-26.8,19.94-32.57,2.59l-15.27-93.26c-65.98,31.22-110.74,101.88-110.44,175.31-3.36,5.11-27.29,1.27-34.4,17.38-9.09,20.62-.25,42.25,24.29,42.37l210.06-.78,210.06.78c24.54-.13,33.38-21.75,24.29-42.37Z"></path>
        <path class="cls-2" d="M721.24,366.41c13.11,0,23.73,10.63,23.73,23.73v11.12c0,6.48-9.83,37.97-13.52,44.23-5.53,9.37-15.98,12.34-18.49,15.87-2.46,3.47-5.51,15.88-8.1,21.27-24.95,51.85-58.28,105.25-112.52,130.44-91.14,42.33-170.82-37.31-208.9-113.14-4.82-9.59-10.05-29.56-15.07-36.71-2.8-3.99-7.45-4.02-10.58-7.34-16.93-17.96-21.61-41.53-21.94-65.21-.19-13.31,10.42-24.25,23.73-24.25h361.66Z"></path>
      </g>
    </g>
  </g>
</svg><style>@media (prefers-color-scheme: light) { :root { filter: none; } }
@media (prefers-color-scheme: dark) { :root { filter: none; } }
</style></svg>