<svg xmlns="http://www.w3.org/2000/svg" version="1.1" xmlns:xlink="http://www.w3.org/1999/xlink" width="10" height="10"><svg version="1.1" id="SvgjsSvg1031" xmlns="http://www.w3.org/2000/svg" xmlns:xlink="http://www.w3.org/1999/xlink" x="0px" y="0px" viewBox="0 0 10 10" style="enable-background:new 0 0 10 10;" xml:space="preserve">
<style type="text/css">
	.st0{fill:#2BB687;}
	.st1{fill:#FFFFFF;}
	.st2{fill:#2A333E;}
</style>
<g id="SvgjsG1030">
	<g>
		<g>
			<g>
				<path class="st0" d="M3.4-31.7v-6.9H5v6.9L3.4-31.7L3.4-31.7z"></path>
				<path class="st0" d="M6-31.7v-5h1.3l0.3,0.5c0.2-0.1,0.4-0.3,0.6-0.4c0.3-0.1,0.5-0.2,0.8-0.2c0.4,0,0.7,0.1,1,0.2
					c0.2,0.2,0.4,0.4,0.5,0.7c0.1,0.3,0.1,0.6,0.1,0.9v3.3H9v-3.1C9-34.9,9-35,9-35.1c0-0.1-0.1-0.1-0.2-0.2c-0.1,0-0.2-0.1-0.3-0.1
					c-0.1,0-0.2,0-0.3,0s-0.2,0.1-0.3,0.1S7.7-35.1,7.6-35v3.3C7.6-31.7,6-31.7,6-31.7z"></path>
				<path class="st0" d="M13.4-31.7c-0.2,0-0.3,0-0.5,0c-0.2,0-0.4,0-0.5,0s-0.3,0-0.5-0.1c-0.1,0-0.3-0.1-0.4-0.1v-0.9h2.3
					c0.1,0,0.2,0,0.2,0c0.1,0,0.1,0,0.1-0.1c0,0,0-0.1,0-0.2v-0.1c0-0.1,0-0.2-0.1-0.2c-0.1-0.1-0.2-0.1-0.4-0.1h-0.8
					c-0.3,0-0.5,0-0.8-0.1c-0.2-0.1-0.4-0.2-0.5-0.4c-0.1-0.2-0.2-0.5-0.2-0.8v-0.3c0-0.3,0.1-0.6,0.2-0.8c0.1-0.2,0.3-0.4,0.6-0.5
					c0.3-0.1,0.7-0.2,1.3-0.2c0.2,0,0.4,0,0.7,0c0.2,0,0.5,0.1,0.7,0.1s0.4,0.1,0.5,0.1v0.9h-2.1c-0.1,0-0.2,0-0.3,0.1
					c-0.1,0-0.1,0.1-0.1,0.2v0.1c0,0.1,0,0.1,0,0.2c0,0,0.1,0.1,0.2,0.1c0.1,0,0.2,0,0.3,0h0.8c0.5,0,0.9,0.1,1.1,0.4s0.3,0.6,0.3,1
					v0.5c0,0.3-0.1,0.6-0.2,0.8c-0.2,0.2-0.4,0.3-0.7,0.4C14.3-31.7,13.9-31.7,13.4-31.7L13.4-31.7z"></path>
				<path class="st0" d="M18.3-31.7c-0.4,0-0.7-0.1-1-0.2s-0.4-0.3-0.5-0.6c-0.1-0.3-0.1-0.6-0.1-1.1l0-1.9h-0.8v-1l0.8-0.2l0.2-1.4
					h1.3v1.4h1.1v1.3h-1.1v1.9c0,0.1,0,0.2,0,0.3c0,0.1,0,0.1,0.1,0.2c0,0,0.1,0.1,0.1,0.1c0,0,0.1,0,0.2,0l0.6,0.1v1.2L18.3-31.7
					L18.3-31.7z"></path>
				<path class="st0" d="M21-31.7c-0.4,0-0.7-0.1-0.9-0.3c-0.2-0.2-0.3-0.5-0.3-0.9v-0.5c0-0.4,0.1-0.7,0.4-0.9s0.7-0.4,1.3-0.4h1.1
					v-0.2c0-0.1,0-0.2-0.1-0.3c0-0.1-0.2-0.2-0.3-0.2c-0.1,0-0.4-0.1-0.7-0.1h-1.5v-0.9c0.2-0.1,0.5-0.2,0.9-0.2
					c0.3-0.1,0.7-0.1,1.2-0.1c0.4,0,0.8,0,1.1,0.1c0.3,0.1,0.5,0.3,0.7,0.5c0.2,0.2,0.2,0.6,0.2,1v3.4h-1.3l-0.2-0.5
					c-0.1,0.1-0.1,0.1-0.2,0.2c-0.1,0.1-0.2,0.1-0.3,0.2c-0.1,0.1-0.3,0.1-0.5,0.1C21.4-31.7,21.2-31.6,21-31.7L21-31.7z M21.9-32.8
					c0,0,0.1,0,0.1,0c0.1,0,0.1,0,0.2,0c0.1,0,0.1,0,0.2,0s0.1,0,0.1,0c0,0,0.1,0,0.1,0v-1L22-33.9c-0.2,0-0.4,0.1-0.5,0.2
					c-0.1,0.1-0.2,0.2-0.2,0.4v0.2c0,0.1,0,0.2,0.1,0.3c0,0.1,0.1,0.1,0.2,0.1C21.7-32.8,21.8-32.7,21.9-32.8L21.9-32.8z"></path>
				<path class="st0" d="M26.7-31.7c-0.4,0-0.7-0.1-0.9-0.2c-0.2-0.1-0.4-0.3-0.5-0.5c-0.1-0.2-0.2-0.6-0.2-0.9v-5.5h1.6v5.2
					c0,0.1,0,0.3,0,0.4s0.1,0.2,0.2,0.2s0.2,0.1,0.3,0.1l0.3,0.1v1.2H26.7z"></path>
				<path class="st0" d="M29.7-31.7c-0.4,0-0.7-0.1-0.9-0.2c-0.2-0.1-0.4-0.3-0.5-0.5c-0.1-0.2-0.2-0.6-0.2-0.9v-5.5h1.6v5.2
					c0,0.1,0,0.3,0,0.4s0.1,0.2,0.2,0.2s0.2,0.1,0.3,0.1l0.3,0.1v1.2H29.7z"></path>
				<path class="st0" d="M33.2-31.7c-0.6,0-1-0.1-1.3-0.2c-0.3-0.2-0.6-0.4-0.7-0.8s-0.2-0.9-0.2-1.5c0-0.7,0.1-1.2,0.2-1.6
					c0.1-0.4,0.4-0.6,0.7-0.8c0.3-0.2,0.8-0.2,1.3-0.2c0.5,0,0.9,0.1,1.2,0.2c0.3,0.1,0.5,0.3,0.7,0.5s0.2,0.6,0.2,1.1
					c0,0.3-0.1,0.6-0.2,0.8c-0.1,0.2-0.3,0.4-0.6,0.4c-0.2,0.1-0.5,0.1-0.9,0.1h-1.1c0,0.2,0.1,0.4,0.1,0.5c0.1,0.1,0.2,0.2,0.3,0.2
					c0.2,0,0.4,0.1,0.7,0.1H35v0.9c-0.2,0.1-0.5,0.1-0.8,0.2C34-31.7,33.6-31.7,33.2-31.7L33.2-31.7z M32.5-34.6h0.9
					c0.2,0,0.3,0,0.3-0.1c0.1-0.1,0.1-0.2,0.1-0.3c0-0.2,0-0.3-0.1-0.4s-0.1-0.2-0.2-0.2c-0.1,0-0.2-0.1-0.4-0.1s-0.3,0-0.4,0.1
					c-0.1,0.1-0.2,0.2-0.2,0.3C32.5-35.1,32.5-34.9,32.5-34.6L32.5-34.6z"></path>
				<path class="st0" d="M36-31.7v-5h1.2l0.4,0.7c0.2-0.2,0.3-0.4,0.6-0.6c0.2-0.2,0.5-0.2,0.8-0.2c0.1,0,0.1,0,0.2,0s0.1,0,0.2,0
					v1.6c-0.1,0-0.2,0-0.3,0c-0.1,0-0.2,0-0.3,0c-0.2,0-0.3,0-0.4,0c-0.1,0-0.2,0.1-0.4,0.2c-0.1,0.1-0.2,0.1-0.3,0.3v3L36-31.7
					L36-31.7z"></path>
			</g>
			<g>
				<path class="st1" d="M-7.7-20.4v-12.7h5.5c0.4,0,0.8,0,1.3,0.2c0.4,0.1,0.8,0.3,1.2,0.6C0.7-32,1-31.6,1.2-31
					c0.2,0.6,0.3,1.4,0.3,2.4s-0.1,1.8-0.3,2.4c-0.2,0.6-0.5,1.1-0.9,1.4c-0.4,0.3-0.8,0.5-1.2,0.6c-0.4,0.1-0.8,0.2-1.2,0.2
					c-0.2,0-0.4,0-0.7,0s-0.5,0-0.8-0.1c-0.2,0-0.5-0.1-0.7-0.1c-0.2,0-0.4-0.1-0.5-0.1v4L-7.7-20.4L-7.7-20.4z M-4.7-26.7h2.2
					c0.3,0,0.5-0.1,0.6-0.2c0.2-0.1,0.3-0.3,0.4-0.6s0.1-0.6,0.1-1.1c0-0.4,0-0.8-0.1-1c-0.1-0.3-0.2-0.5-0.4-0.6
					c-0.2-0.1-0.4-0.2-0.6-0.2h-2.2L-4.7-26.7L-4.7-26.7z"></path>
				<path class="st1" d="M2.9-20.4v-9.2h2.3l0.7,1.3c0.3-0.4,0.6-0.7,1-1c0.4-0.3,0.9-0.4,1.4-0.4c0.1,0,0.2,0,0.3,0
					c0.1,0,0.2,0,0.4,0.1v3c-0.2,0-0.4,0-0.6-0.1c-0.2,0-0.4,0-0.6,0c-0.3,0-0.6,0-0.8,0.1c-0.2,0.1-0.5,0.1-0.7,0.3
					S6-26.1,5.8-25.9v5.4L2.9-20.4L2.9-20.4z"></path>
				<path class="st1" d="M14.2-20.3c-0.8,0-1.5-0.1-2-0.2c-0.5-0.2-1-0.4-1.3-0.8c-0.3-0.4-0.6-0.9-0.7-1.5C10-23.4,9.9-24.2,9.9-25
					c0-0.9,0.1-1.7,0.2-2.3c0.1-0.6,0.4-1.1,0.7-1.4s0.8-0.6,1.3-0.8s1.2-0.2,2-0.2s1.5,0.1,2,0.2c0.5,0.1,1,0.4,1.3,0.8
					c0.3,0.4,0.6,0.8,0.7,1.4c0.2,0.6,0.2,1.4,0.2,2.3s-0.1,1.6-0.2,2.2c-0.2,0.6-0.4,1.1-0.7,1.4s-0.8,0.6-1.3,0.8
					C15.7-20.4,15-20.3,14.2-20.3L14.2-20.3z M14.2-22.7c0.3,0,0.5,0,0.6-0.1c0.2-0.1,0.3-0.1,0.4-0.3c0.1-0.1,0.2-0.4,0.2-0.7
					s0.1-0.8,0.1-1.3c0-0.5,0-1-0.1-1.3s-0.1-0.6-0.2-0.7c-0.1-0.1-0.2-0.2-0.4-0.3c-0.2-0.1-0.4-0.1-0.6-0.1s-0.5,0-0.6,0.1
					s-0.3,0.1-0.4,0.3s-0.2,0.4-0.2,0.7c0,0.3-0.1,0.8-0.1,1.3c0,0.5,0,1,0.1,1.3s0.1,0.6,0.2,0.7c0.1,0.1,0.2,0.3,0.4,0.3
					C13.8-22.7,14-22.7,14.2-22.7z"></path>
				<path class="st1" d="M22.4-16.2c-0.6,0-1.1-0.1-1.5-0.3s-0.8-0.4-1.1-0.7c-0.3-0.3-0.4-0.7-0.4-1.2v-0.2c0-0.5,0.1-0.9,0.4-1.2
					c0.3-0.4,0.6-0.6,1.1-0.8c0.4-0.2,0.9-0.3,1.4-0.3l0.9,0.9c-0.2,0-0.4,0-0.6,0.1c-0.1,0.1-0.3,0.2-0.4,0.3s-0.1,0.3-0.1,0.4v0.1
					c0,0.2,0.1,0.5,0.3,0.6c0.2,0.1,0.4,0.2,0.8,0.2h1.6c0.3,0,0.6-0.1,0.8-0.2S26-18.7,26-19v-0.2c0-0.2,0-0.3-0.1-0.4
					s-0.2-0.2-0.4-0.3C25.3-20,25.1-20,24.9-20h-1.8c-1.1,0-2-0.2-2.5-0.6c-0.5-0.4-0.8-0.9-0.8-1.5c0-0.5,0.1-0.9,0.4-1.2
					c0.3-0.3,0.6-0.5,1.1-0.7c-0.3-0.2-0.6-0.4-0.8-0.7s-0.3-0.6-0.4-0.9c-0.1-0.3-0.1-0.7-0.1-1c0-0.7,0.1-1.2,0.4-1.7
					c0.3-0.4,0.7-0.8,1.3-1c0.6-0.2,1.3-0.3,2.2-0.3h5v1.6l-1.2,0.3c0.1,0.1,0.2,0.2,0.2,0.4c0.1,0.1,0.1,0.3,0.2,0.6
					c0,0.2,0.1,0.5,0.1,0.8c0,0.6-0.1,1-0.3,1.5s-0.6,0.8-1.1,1c-0.5,0.2-1.1,0.4-1.9,0.4h-1.7c-0.2,0-0.4,0-0.6,0.1
					c-0.2,0.1-0.2,0.2-0.2,0.4c0,0.2,0.1,0.3,0.2,0.4c0.1,0.1,0.3,0.1,0.5,0.1h2.4c0.7,0,1.3,0.1,1.8,0.3s0.9,0.5,1.2,0.9
					s0.4,1,0.4,1.7v0.2c0,0.9-0.3,1.7-0.8,2.2s-1.5,0.8-2.7,0.8L22.4-16.2L22.4-16.2z M23.5-25.4h1c0.3,0,0.5,0,0.6-0.1
					c0.2-0.1,0.2-0.2,0.3-0.4c0.1-0.2,0.1-0.4,0.1-0.6c0-0.2,0-0.4-0.1-0.6c-0.1-0.1-0.2-0.3-0.3-0.3c-0.2-0.1-0.3-0.1-0.6-0.1h-0.9
					c-0.3,0-0.6,0.1-0.8,0.2s-0.2,0.4-0.2,0.8c0,0.4,0.1,0.6,0.2,0.8C22.9-25.4,23.2-25.4,23.5-25.4z"></path>
				<path class="st1" d="M30-20.4v-9.2h2.3l0.7,1.3c0.3-0.4,0.6-0.7,1-1c0.4-0.3,0.8-0.4,1.4-0.4c0.1,0,0.2,0,0.3,0
					c0.1,0,0.2,0,0.4,0.1v3c-0.2,0-0.4,0-0.6-0.1c-0.2,0-0.4,0-0.5,0c-0.3,0-0.6,0-0.8,0.1c-0.2,0.1-0.5,0.1-0.7,0.3
					c-0.2,0.1-0.4,0.3-0.5,0.5v5.4L30-20.4L30-20.4z"></path>
				<path class="st1" d="M38.9-20.3c-0.7,0-1.3-0.2-1.7-0.6c-0.4-0.4-0.7-1-0.7-1.7v-0.9c0-0.7,0.2-1.3,0.7-1.7
					c0.5-0.5,1.3-0.7,2.3-0.7h2.1v-0.4c0-0.2,0-0.5-0.1-0.6c-0.1-0.2-0.3-0.3-0.5-0.3s-0.7-0.1-1.2-0.1h-2.7v-1.7
					c0.5-0.2,1-0.3,1.6-0.4c0.6-0.1,1.3-0.2,2.2-0.2c0.8,0,1.4,0.1,2,0.3s1,0.5,1.3,0.9c0.3,0.5,0.5,1.1,0.5,1.9v6.2h-2.3l-0.5-0.9
					c-0.1,0.1-0.2,0.2-0.4,0.3c-0.2,0.1-0.4,0.2-0.7,0.4c-0.3,0.1-0.5,0.2-0.9,0.3S39.3-20.3,38.9-20.3L38.9-20.3z M40.4-22.3
					c0.1,0,0.2,0,0.3,0s0.2,0,0.3-0.1c0.1,0,0.2-0.1,0.3-0.1s0.2-0.1,0.2-0.1s0.1,0,0.2-0.1v-1.9l-1.1,0.1c-0.4,0.1-0.7,0.1-0.8,0.3
					c-0.2,0.1-0.3,0.4-0.3,0.7v0.4c0,0.2,0,0.4,0.1,0.5c0.1,0.1,0.2,0.2,0.3,0.2C40.1-22.4,40.3-22.4,40.4-22.3L40.4-22.3z"></path>
				<path class="st1" d="M46.3-20.4v-9.2h2.4l0.5,0.9c0.4-0.3,0.8-0.5,1.2-0.7c0.4-0.2,1-0.3,1.7-0.3c0.6,0,1,0.1,1.4,0.4
					s0.7,0.5,0.8,0.9c0.2-0.2,0.5-0.4,0.9-0.6c0.3-0.2,0.7-0.4,1.1-0.5c0.4-0.1,0.8-0.2,1.1-0.2c0.8,0,1.3,0.1,1.8,0.4
					c0.4,0.3,0.7,0.7,0.9,1.2s0.3,1.1,0.3,1.9v5.9h-2.9V-26c0-0.3-0.1-0.5-0.1-0.6S57.2-26.9,57-27c-0.2-0.1-0.3-0.1-0.6-0.1
					c-0.3,0-0.6,0.1-0.8,0.2c-0.3,0.1-0.5,0.3-0.7,0.4c0,0.1,0,0.2,0,0.3c0,0.1,0,0.2,0,0.3v5.6h-3V-26c0-0.3,0-0.5-0.1-0.6
					s-0.2-0.3-0.4-0.4c-0.2-0.1-0.3-0.1-0.6-0.1c-0.2,0-0.4,0-0.6,0.1c-0.2,0-0.4,0.1-0.5,0.2s-0.3,0.2-0.4,0.3v6.1L46.3-20.4
					L46.3-20.4z"></path>
			</g>
		</g>
		<g>
			<path class="st1" d="M43.5-31.7v-1.1l1.6-1.6c0.1-0.1,0.2-0.2,0.2-0.3c0.1-0.1,0.1-0.2,0.2-0.2c0-0.1,0.1-0.2,0.1-0.2
				c0-0.1,0-0.2,0-0.2c0-0.1-0.1-0.1-0.2-0.1c-0.1,0-0.2,0-0.3,0h-1.5v-1.1c0.2,0,0.5-0.1,0.8-0.1c0.3,0,0.6-0.1,1-0.1
				c0.4,0,0.7,0.1,1,0.2c0.2,0.1,0.4,0.3,0.5,0.5s0.2,0.5,0.2,0.8c0,0.2,0,0.4-0.1,0.6s-0.2,0.4-0.3,0.5c-0.1,0.2-0.2,0.3-0.4,0.5
				l-0.9,0.9h1.8v1.2L43.5-31.7L43.5-31.7z"></path>
			<path class="st1" d="M48.9-31.6c-0.3,0-0.6-0.1-0.8-0.2c-0.2-0.1-0.4-0.3-0.5-0.5s-0.2-0.5-0.2-0.8v-2.4c0-0.3,0-0.6,0.2-0.8
				c0.1-0.2,0.3-0.4,0.5-0.5s0.5-0.2,0.8-0.2h1.1c0.3,0,0.5,0.1,0.7,0.2c0.2,0.1,0.3,0.3,0.5,0.5c0.1,0.2,0.2,0.5,0.2,0.8v2.4
				c0,0.4-0.1,0.8-0.3,1c-0.2,0.2-0.6,0.4-1,0.4H48.9L48.9-31.6z M49.3-32.8h0.4c0.1,0,0.2,0,0.3-0.1c0.1-0.1,0.1-0.2,0.1-0.3v-2
				c0-0.2,0-0.3-0.1-0.3c-0.1,0-0.1-0.1-0.2-0.1h-0.5c-0.1,0-0.2,0-0.3,0.1c0,0.1-0.1,0.2-0.1,0.3v2c0,0.2,0,0.2,0.1,0.3
				C49-32.9,49.1-32.8,49.3-32.8L49.3-32.8z"></path>
			<path class="st1" d="M52-31.7v-1.1l1.6-1.6c0.1-0.1,0.2-0.2,0.2-0.3c0.1-0.1,0.1-0.2,0.2-0.2c0-0.1,0.1-0.2,0.1-0.2
				c0-0.1,0-0.2,0-0.2c0-0.1-0.1-0.1-0.2-0.1c-0.1,0-0.2,0-0.3,0H52v-1.1c0.2,0,0.5-0.1,0.8-0.1c0.3,0,0.6-0.1,1-0.1
				c0.4,0,0.7,0.1,1,0.2c0.2,0.1,0.4,0.3,0.5,0.5s0.2,0.5,0.2,0.8c0,0.2,0,0.4-0.1,0.6s-0.2,0.4-0.3,0.5c-0.1,0.2-0.2,0.3-0.4,0.5
				l-0.9,0.9h1.8v1.2L52-31.7L52-31.7z"></path>
			<path class="st1" d="M57.7-31.6c-0.3,0-0.5,0-0.8,0c-0.3,0-0.6-0.1-0.9-0.1v-1.1h1.8c0.1,0,0.2,0,0.3-0.1c0.1,0,0.1-0.1,0.1-0.2
				c0-0.1,0-0.1,0-0.2v-0.2c0-0.1,0-0.2-0.1-0.3c0-0.1-0.1-0.1-0.2-0.1h-0.3c-0.1,0-0.2,0-0.2,0.1c-0.1,0-0.1,0.1-0.1,0.2H56
				l0.1-3.2h3.2v1.2h-2l0,0.8c0.1-0.1,0.2-0.1,0.3-0.1c0.1,0,0.2,0,0.3,0h0.5c0.3,0,0.5,0.1,0.7,0.2c0.2,0.1,0.3,0.3,0.4,0.4
				c0.1,0.2,0.1,0.4,0.1,0.6v0.8c0,0.3-0.1,0.6-0.2,0.8c-0.1,0.2-0.3,0.3-0.6,0.4C58.5-31.6,58.1-31.6,57.7-31.6L57.7-31.6z"></path>
		</g>
	</g>
</g>
<g>
	<path class="st2" d="M0.7,8.6V4.2C0.7,4.1,0.8,4,0.9,4h1.4c0.1,0,0.2,0.1,0.2,0.2v4.3c0,0.1-0.1,0.2-0.2,0.2H0.9
		C0.8,8.8,0.7,8.7,0.7,8.6z"></path>
	<path class="st2" d="M3.8,8.5V1.5c0-0.1,0.1-0.2,0.2-0.2h3c0.2,0,0.5,0,0.8,0.1c0.3,0.1,0.5,0.2,0.7,0.3C8.8,1.9,9,2.1,9.1,2.5
		c0.1,0.4,0.2,0.8,0.2,1.4c0,0.6-0.1,1.1-0.2,1.4C9,5.7,8.8,5.9,8.6,6.1C8.4,6.3,8.1,6.4,7.9,6.5C7.6,6.6,7.4,6.6,7.2,6.6
		c-0.1,0-0.3,0-0.4,0c-0.1,0-0.3,0-0.4-0.1c-0.1,0-0.3,0-0.4-0.1c-0.1,0-0.2,0-0.3,0v2.1c0,0.1-0.1,0.2-0.2,0.2H4.1
		C3.9,8.8,3.8,8.7,3.8,8.5z M5.6,5h1.3C7,5,7.2,5,7.3,4.9c0.1-0.1,0.2-0.2,0.2-0.4c0-0.2,0.1-0.4,0.1-0.6c0-0.2,0-0.5-0.1-0.6
		C7.4,3.1,7.4,3,7.3,2.9C7.2,2.9,7,2.8,6.9,2.8H5.6V5z"></path>
	<path class="st2" d="M1.6,3L1.6,3C1.1,3,0.7,2.6,0.7,2.1v0c0-0.5,0.4-0.9,0.9-0.9h0c0.5,0,0.9,0.4,0.9,0.9v0C2.5,2.6,2.1,3,1.6,3z"></path>
</g>
</svg><style>@media (prefers-color-scheme: light) { :root { filter: none; } }
@media (prefers-color-scheme: dark) { :root { filter: none; } }
</style></svg>