<svg width="1080" height="1080" viewBox="0 0 1080 1080" fill="none" xmlns="http://www.w3.org/2000/svg">
<g clip-path="url(#clip0_2815_183)">
<rect width="1080" height="1080" rx="300" fill="white"/>
<mask id="mask0_2815_183" style="mask-type:luminance" maskUnits="userSpaceOnUse" x="0" y="0" width="1080" height="1080">
<path d="M1080 0H0V1080H1080V0Z" fill="white"/>
</mask>
<g mask="url(#mask0_2815_183)">
<path d="M877.896 753.39C859.009 671.995 812.004 685.296 746.483 667.273C714.682 658.526 680.979 643.128 655.961 621.325C654.464 620.021 652.138 620.524 651.292 622.321L582.133 770.63C581.031 772.982 577.71 772.902 576.644 770.533C576.636 770.515 576.636 770.489 576.627 770.48C569.826 755.522 566.523 736.072 561.088 720.242C560.894 719.687 560.876 719.105 561.008 718.542C564.056 706.024 583.753 674.012 579.331 664.304C577.992 661.38 573.834 654.826 565.219 653.822C561.317 653.373 550.781 653.047 539.999 652.967C529.217 653.047 518.681 653.373 514.779 653.822C506.163 654.826 502.006 661.38 500.667 664.304C496.244 674.003 515.941 706.024 518.989 718.542C519.122 719.105 519.104 719.687 518.91 720.242C513.475 736.072 510.172 755.522 503.371 770.48C503.362 770.489 503.362 770.506 503.353 770.533C502.287 772.911 498.966 772.99 497.865 770.63L428.706 622.321C427.86 620.524 425.534 620.013 424.037 621.325C399.019 643.136 365.316 658.535 333.515 667.273C267.985 685.296 220.989 671.995 202.102 753.39C195.83 780.425 189.029 839.736 193.566 866.084C202.084 915.459 300.657 936.997 341.875 945.832C407.485 959.892 473.614 970.066 539.99 971.247C606.375 970.066 672.504 959.892 738.105 945.832C779.332 936.997 877.905 915.459 886.414 866.084C890.951 839.736 884.15 780.416 877.878 753.39H877.896Z" fill="#29323D"/>
<path d="M746.412 312.991C740.149 298.8 719.069 302.183 716.109 297.681C716.373 232.997 676.944 170.752 618.822 143.25L605.371 225.403C600.288 240.678 578.168 240.572 576.68 223.122L594.157 129.799C594.65 120.003 579.164 110.912 570.566 109.926C563.792 109.142 551.908 108.763 539.999 108.754H539.937C528.027 108.754 516.144 109.142 509.37 109.926C500.772 110.912 485.286 120.012 485.779 129.799L503.256 223.122C501.767 240.572 479.648 240.687 474.565 225.403L461.114 143.25C402.992 170.752 363.563 232.997 363.827 297.681C360.867 302.183 339.787 298.8 333.524 312.991C325.516 331.156 333.303 350.21 354.921 350.315L539.963 349.628L725.006 350.315C746.623 350.201 754.411 331.156 746.403 312.991H746.412Z" fill="#04BF8A"/>
<path d="M699.653 387.084C711.202 387.084 720.557 396.448 720.557 407.988V417.783C720.557 423.492 711.898 451.231 708.647 456.746C703.776 465 694.57 467.616 692.359 470.726C690.192 473.782 687.506 484.715 685.224 489.463C663.246 535.137 633.885 582.178 586.105 604.368C505.819 641.656 435.629 571.501 402.084 504.702C397.838 496.254 393.231 478.663 388.809 472.364C386.342 468.849 382.246 468.823 379.489 465.898C364.575 450.077 360.453 429.315 360.162 408.455C359.995 396.73 369.341 387.093 381.066 387.093H699.653V387.084Z" fill="#29323D"/>
</g>
</g>
<defs>
<clipPath id="clip0_2815_183">
<rect width="1080" height="1080" rx="300" fill="white"/>
</clipPath>
</defs>
</svg>
